<svg viewBox="0 0 24 24" fill="none" xmlns="http://www.w3.org/2000/svg">
<path d="M12 24C18.6274 24 24 18.6274 24 12C24 5.37258 18.6274 0 12 0C5.37258 0 0 5.37258 0 12C0 18.6274 5.37258 24 12 24Z" fill="#F1F1F2"/>
<path d="M21.378 15.4782C21.78 14.3949 22 13.2231 22 11.9999C22 10.7767 21.78 9.60503 21.378 8.52167L12 7.6521L2.62199 8.52167C2.22004 9.60503 2 10.7767 2 11.9999C2 13.2231 2.22004 14.3949 2.62199 15.4782L12 16.3477L21.378 15.4782Z" fill="white"/>
<path d="M12 22C16.2996 22 19.9651 19.2863 21.378 15.4783H2.62195C4.03492 19.2863 7.70031 22 12 22Z" fill="#D80027"/>
<path d="M12 2C7.70031 2 4.03492 4.71375 2.62195 8.52176H21.378C19.9651 4.71375 16.2996 2 12 2Z" fill="#D80027"/>
</svg>
