<svg viewBox="0 0 24 24" fill="none" xmlns="http://www.w3.org/2000/svg">
<path d="M12 24C18.6274 24 24 18.6274 24 12C24 5.37258 18.6274 0 12 0C5.37258 0 0 5.37258 0 12C0 18.6274 5.37258 24 12 24Z" fill="#F1F1F2"/>
<path d="M12 22C17.5228 22 22 17.5228 22 12C22 6.47715 17.5228 2 12 2C6.47715 2 2 6.47715 2 12C2 17.5228 6.47715 22 12 22Z" fill="white"/>
<path d="M12 2C7.70034 2 4.03491 4.71375 2.62198 8.52176H21.378C19.9651 4.71375 16.2996 2 12 2Z" fill="#A2001D"/>
<path d="M12 22C16.2996 22 19.9651 19.2863 21.378 15.4783H2.62198C4.03491 19.2863 7.70034 22 12 22Z" fill="#0052B4"/>
</svg>
