<svg viewBox="0 0 24 24" fill="none" xmlns="http://www.w3.org/2000/svg">
<path d="M12 24C18.6274 24 24 18.6274 24 12C24 5.37258 18.6274 0 12 0C5.37258 0 0 5.37258 0 12C0 18.6274 5.37258 24 12 24Z" fill="#F1F1F2"/>
<path d="M12 22C17.5228 22 22 17.5228 22 12C22 6.47715 17.5228 2 12 2C6.47714 2 1.99999 6.47715 1.99999 12C1.99999 17.5228 6.47715 22 12 22Z" fill="white"/>
<path d="M11.1304 12C11.1304 12 4.93477 19.0725 4.92891 19.0711C6.73852 20.8807 9.23855 22 12 22C17.5228 22 22 17.5228 22 12L11.1304 12Z" fill="#D80027"/>
<path d="M4.92889 4.92883C1.02366 8.83407 1.02366 15.1657 4.92889 19.071C6.54268 17.4572 8.09475 15.9052 12 11.9999L4.92889 4.92883Z" fill="#0052B4"/>
</svg>
