<svg viewBox="0 0 24 24" fill="none" xmlns="http://www.w3.org/2000/svg">
<path d="M12 24C18.6274 24 24 18.6274 24 12C24 5.37259 18.6274 0 12 0C5.37258 0 0 5.37259 0 12C0 18.6274 5.37258 24 12 24Z" fill="#F1F1F2"/>
<path d="M2.62196 15.4783C4.03489 19.2863 7.70033 22.0001 12 22.0001C16.2996 22.0001 19.9651 19.2863 21.378 15.4783L12 14.6088L2.62196 15.4783Z" fill="#FFDA44"/>
<path d="M12 2C7.70033 2 4.03489 4.71376 2.62196 8.52177L12 9.3913L21.378 8.52173C19.9651 4.71376 16.2996 2 12 2Z" fill="black"/>
<path d="M2.62198 8.52185C2.22002 9.60517 1.99998 10.7769 1.99998 12.0001C1.99998 13.2233 2.22002 14.395 2.62198 15.4784H21.3781C21.78 14.395 22 13.2233 22 12.0001C22 10.7769 21.78 9.60517 21.378 8.52185H2.62198Z" fill="#D80027"/>
</svg>
