<svg viewBox="0 0 24 24" fill="none" xmlns="http://www.w3.org/2000/svg">
<path d="M12 24C18.6274 24 24 18.6274 24 12C24 5.37258 18.6274 0 12 0C5.37258 0 0 5.37258 0 12C0 18.6274 5.37258 24 12 24Z" fill="#F1F1F2"/>
<path d="M12 22C17.5228 22 22 17.5228 22 12C22 6.47715 17.5228 2 12 2C6.47715 2 2 6.47715 2 12C2 17.5228 6.47715 22 12 22Z" fill="white"/>
<path d="M22 12C22 7.70031 19.2862 4.03488 15.4782 2.62195V21.378C19.2862 19.965 22 16.2996 22 12Z" fill="#D80027"/>
<path d="M2 12C2 16.2996 4.71379 19.965 8.52176 21.378V2.62195C4.71379 4.03488 2 7.70031 2 12Z" fill="#0052B4"/>
</svg>
