<svg viewBox="0 0 24 24" fill="none" xmlns="http://www.w3.org/2000/svg">
<path d="M12 24C18.6274 24 24 18.6274 24 12C24 5.37258 18.6274 0 12 0C5.37258 0 0 5.37258 0 12C0 18.6274 5.37258 24 12 24Z" fill="#F1F1F2"/>
<path d="M12 22C17.5228 22 22 17.5228 22 12C22 6.47715 17.5228 2 12 2C6.47715 2 2 6.47715 2 12C2 17.5228 6.47715 22 12 22Z" fill="white"/>
<path d="M12 9.39119H21.6555C21.4048 8.46095 21.0237 7.58435 20.5323 6.78247H12V9.39119Z" fill="#338AF3"/>
<path d="M5.77511 19.8261H18.2248C19.1375 19.0992 19.9201 18.2164 20.5322 17.2174H3.46773C4.07988 18.2163 4.86253 19.0992 5.77511 19.8261Z" fill="#338AF3"/>
<path d="M5.47824 4.41956C4.69207 5.09655 4.01242 5.89377 3.46773 6.78268H5.47824V4.41956Z" fill="#338AF3"/>
<path d="M12 12C12 10.9814 12 10.1289 12 9.39124H8.08695V12H5.47824V9.39124H2.34449C2.12031 10.223 2 11.0973 2 12C2 12.9026 2.12031 13.7769 2.34449 14.6087H21.6555C21.8797 13.7769 22 12.9026 22 12H12Z" fill="#338AF3"/>
<path d="M12 2C10.6114 2 9.28892 2.28332 8.08697 2.79484V6.78262H12C12 5.87199 12 5.0975 12 4.17391H18.2249C16.5167 2.81344 14.3535 2 12 2Z" fill="#338AF3"/>
</svg>
