<svg viewBox="0 0 24 24" fill="none" xmlns="http://www.w3.org/2000/svg">
<path d="M12 24C18.6274 24 24 18.6274 24 12C24 5.37258 18.6274 0 12 0C5.37258 0 0 5.37258 0 12C0 18.6274 5.37258 24 12 24Z" fill="#F1F1F2"/>
<path d="M12 22C17.5228 22 22 17.5228 22 12C22 6.47715 17.5228 2 12 2C6.47715 2 2 6.47715 2 12C2 17.5228 6.47715 22 12 22Z" fill="white"/>
<path d="M22 11.9998C22 7.70019 19.2862 4.03476 15.4782 2.62183V21.3779C19.2862 19.9649 22 16.2995 22 11.9998Z" fill="#D80027"/>
<path d="M2 11.9998C2 16.2995 4.71375 19.9649 8.52176 21.3778V2.62183C4.71375 4.03476 2 7.70019 2 11.9998Z" fill="#6DA544"/>
</svg>
