<svg viewBox="0 0 24 24" fill="none" xmlns="http://www.w3.org/2000/svg">
<path d="M12 24C18.6274 24 24 18.6274 24 12C24 5.37258 18.6274 0 12 0C5.37258 0 0 5.37258 0 12C0 18.6274 5.37258 24 12 24Z" fill="#F1F1F2"/>
<path d="M2 11.9998C2 16.2994 4.71375 19.9649 8.52168 21.3778L9.39129 11.9998L8.52168 2.62183C4.71375 4.03479 2 7.70019 2 11.9998Z" fill="#6DA544"/>
<path d="M22 12C22 6.47719 17.5228 2 12 2C10.7768 2 9.60503 2.22004 8.52167 2.62199V21.378C9.60503 21.78 10.7768 22 12 22C17.5228 22 22 17.5228 22 12Z" fill="#D80027"/>
<path d="M8.52176 15.4782C10.4427 15.4782 12 13.921 12 12C12 10.079 10.4427 8.52173 8.52176 8.52173C6.60078 8.52173 5.04352 10.079 5.04352 12C5.04352 13.921 6.60078 15.4782 8.52176 15.4782Z" fill="#FFDA44"/>
<path d="M6.56525 10.2607V12.4346C6.56525 13.5152 7.44118 14.3912 8.52177 14.3912C9.60235 14.3912 10.4783 13.5152 10.4783 12.4346V10.2607H6.56525Z" fill="#D80027"/>
<path d="M8.52179 13.0869C8.16218 13.0869 7.8696 12.7943 7.8696 12.4347V11.5652H9.17393V12.4348C9.17393 12.7943 8.88136 13.0869 8.52179 13.0869Z" fill="#F0F0F0"/>
</svg>
