<svg viewBox="0 0 24 24" fill="none" xmlns="http://www.w3.org/2000/svg">
<path d="M12 24C18.6274 24 24 18.6274 24 12C24 5.37258 18.6274 0 12 0C5.37258 0 0 5.37258 0 12C0 18.6274 5.37258 24 12 24Z" fill="#F1F1F2"/>
<path d="M12 22C17.5228 22 22 17.5228 22 12C22 6.47715 17.5228 2 12 2C6.47715 2 2 6.47715 2 12C2 17.5228 6.47715 22 12 22Z" fill="#FFDA44"/>
<path d="M9.82613 10.6957H21.9154C21.2762 5.78914 17.0807 2 12 2C11.2534 2 10.5261 2.08254 9.8261 2.2377V10.6957H9.82613Z" fill="#0052B4"/>
<path d="M7.21739 10.6957V3.21594C4.47153 4.71415 2.50587 7.46223 2.08466 10.6957H7.21739V10.6957Z" fill="#0052B4"/>
<path d="M7.21735 13.3042H2.08466C2.50587 16.5377 4.47153 19.2858 7.21739 20.7839L7.21735 13.3042Z" fill="#0052B4"/>
<path d="M9.8261 13.3042V21.7622C10.5261 21.9173 11.2534 21.9999 12 21.9999C17.0807 21.9999 21.2762 18.2107 21.9154 13.3042H9.8261V13.3042Z" fill="#0052B4"/>
</svg>
