<svg viewBox="0 0 24 24" fill="none" xmlns="http://www.w3.org/2000/svg">
<path d="M12 24C18.6274 24 24 18.6274 24 12C24 5.37258 18.6274 0 12 0C5.37258 0 0 5.37258 0 12C0 18.6274 5.37258 24 12 24Z" fill="#F1F1F2"/>
<path d="M12 22C17.5228 22 22 17.5228 22 12C22 6.47715 17.5228 2 12 2C6.47715 2 2 6.47715 2 12C2 17.5228 6.47715 22 12 22Z" fill="white"/>
<path d="M12 22C17.5228 22 22 17.5228 22 12C22 10.7768 21.78 9.60501 21.378 8.52173H2.62199C2.22004 9.60501 2 10.7768 2 12C2 17.5228 6.47719 22 12 22Z" fill="#0052B4"/>
<path d="M12 22C16.2997 22 19.9651 19.2863 21.378 15.4783H2.62201C4.03494 19.2863 7.70037 22 12 22Z" fill="#D80027"/>
<path d="M4.58585 7.6521V12.6406C4.58585 15.4783 8.29292 16.3477 8.29292 16.3477C8.29292 16.3477 11.9999 15.4783 11.9999 12.6406V7.6521H4.58585Z" fill="#F0F0F0"/>
<path d="M5.45544 7.6521V12.6406C5.45544 12.9738 5.52943 13.2884 5.67599 13.5833C7.13044 13.5833 9.30435 13.5833 10.9099 13.5833C11.0564 13.2884 11.1304 12.9738 11.1304 12.6406V7.6521H5.45544Z" fill="#D80027"/>
<path d="M10.032 11.1304H8.72771V10.2608H9.59728V9.39126H8.72771V8.52173H7.85814V9.39126H6.98861V10.2608H7.85814V11.1304H6.55377V12H7.85814V12.8695H8.72771V12H10.032V11.1304Z" fill="#F0F0F0"/>
<path d="M6.86211 14.7973C7.42246 15.1494 7.99816 15.3539 8.29289 15.4448C8.58762 15.3539 9.16332 15.1494 9.72367 14.7973C10.2888 14.4421 10.6849 14.0359 10.9098 13.5834C10.6617 13.4079 10.359 13.3044 10.032 13.3044C9.91297 13.3044 9.79731 13.3185 9.68609 13.3444C9.45043 12.8089 8.91547 12.4348 8.29293 12.4348C7.67039 12.4348 7.13539 12.8089 6.89977 13.3444C6.78856 13.3185 6.67285 13.3044 6.55383 13.3044C6.22684 13.3044 5.92414 13.4079 5.67606 13.5834C5.90086 14.0359 6.29699 14.4421 6.86211 14.7973Z" fill="#0052B4"/>
</svg>
