<svg viewBox="0 0 24 24" fill="none" xmlns="http://www.w3.org/2000/svg">
<path d="M12 24C18.6274 24 24 18.6274 24 12C24 5.37258 18.6274 0 12 0C5.37258 0 0 5.37258 0 12C0 18.6274 5.37258 24 12 24Z" fill="#F1F1F2"/>
<path d="M12 22C17.5228 22 22 17.5228 22 12C22 6.47715 17.5228 2 12 2C6.47715 2 2 6.47715 2 12C2 17.5228 6.47715 22 12 22Z" fill="white"/>
<path d="M4.06718 5.91174C3.28167 6.93374 2.68937 8.11167 2.34448 9.39131H7.54675L4.06718 5.91174Z" fill="#0052B4"/>
<path d="M21.6555 9.3914C21.3106 8.11179 20.7183 6.93386 19.9328 5.91187L16.4533 9.3914H21.6555Z" fill="#0052B4"/>
<path d="M2.34448 14.6086C2.6894 15.8883 3.28171 17.0662 4.06718 18.0881L7.54663 14.6086H2.34448Z" fill="#0052B4"/>
<path d="M18.0882 4.06722C17.0662 3.28171 15.8883 2.6894 14.6087 2.34448V7.54671L18.0882 4.06722Z" fill="#0052B4"/>
<path d="M5.91179 19.9327C6.93378 20.7182 8.11171 21.3105 9.39132 21.6554V16.4532L5.91179 19.9327Z" fill="#0052B4"/>
<path d="M9.39128 2.34448C8.11167 2.6894 6.93374 3.28171 5.91179 4.06718L9.39128 7.54667V2.34448Z" fill="#0052B4"/>
<path d="M14.6087 21.6554C15.8883 21.3105 17.0662 20.7182 18.0882 19.9327L14.6087 16.4532V21.6554Z" fill="#0052B4"/>
<path d="M16.4533 14.6086L19.9328 18.0882C20.7183 17.0662 21.3106 15.8883 21.6555 14.6086H16.4533Z" fill="#0052B4"/>
<path d="M21.9154 10.6957H13.3044H13.3044V2.08465C12.8774 2.02906 12.4421 2 12 2C11.5579 2 11.1226 2.02906 10.6957 2.08465V10.6956V10.6956H2.08465C2.02906 11.1226 2 11.5579 2 12C2 12.4421 2.02906 12.8774 2.08465 13.3043H10.6956H10.6956V21.9154C11.1226 21.9709 11.5579 22 12 22C12.4421 22 12.8774 21.971 13.3043 21.9154V13.3044V13.3044H21.9154C21.9709 12.8774 22 12.4421 22 12C22 11.5579 21.9709 11.1226 21.9154 10.6957Z" fill="#D80027"/>
<path d="M14.6087 14.6088L19.0711 19.0711C19.2763 18.866 19.4721 18.6515 19.6589 18.4292L15.8385 14.6088H14.6087V14.6088Z" fill="#D80027"/>
<path d="M9.39127 14.6088H9.3912L4.9289 19.0711C5.13405 19.2763 5.34855 19.4721 5.57089 19.6589L9.39127 15.8384V14.6088Z" fill="#D80027"/>
<path d="M9.3913 9.39142V9.39135L4.92896 4.92896C4.72373 5.13411 4.52794 5.3486 4.34115 5.57095L8.16158 9.39138H9.3913V9.39142Z" fill="#D80027"/>
<path d="M14.6087 9.39126L19.0711 4.92884C18.8659 4.7236 18.6514 4.52782 18.4291 4.34106L14.6087 8.16149V9.39126Z" fill="#D80027"/>
</svg>
