<svg viewBox="0 0 24 24" fill="none" xmlns="http://www.w3.org/2000/svg">
<path d="M12 24C18.6274 24 24 18.6274 24 12C24 5.37258 18.6274 0 12 0C5.37258 0 0 5.37258 0 12C0 18.6274 5.37258 24 12 24Z" fill="#F1F1F2"/>
<path d="M12 22C17.5228 22 22 17.5228 22 12C22 6.47715 17.5228 2 12 2C6.47715 2 2 6.47715 2 12C2 17.5228 6.47715 22 12 22Z" fill="white"/>
<path d="M11.5652 11.9999H22C22 11.0974 21.8797 10.223 21.6555 9.39124H11.5652V11.9999Z" fill="#D80027"/>
<path d="M11.5652 6.78242H20.5323C19.9201 5.78351 19.1374 4.90058 18.2249 4.17371H11.5652V6.78242Z" fill="#D80027"/>
<path d="M12 21.9997C14.3535 21.9997 16.5167 21.1863 18.2249 19.8258H5.77517C7.48337 21.1863 9.64654 21.9997 12 21.9997Z" fill="#D80027"/>
<path d="M3.46777 17.217H20.5323C21.0237 16.4151 21.4049 15.5385 21.6555 14.6083H2.34453C2.59519 15.5385 2.97633 16.4151 3.46777 17.217Z" fill="#D80027"/>
<path d="M6.63219 3.56164H7.54348L6.69583 4.17746L7.01962 5.17391L6.172 4.55809L5.32438 5.17391L5.60407 4.31309C4.85774 4.93477 4.2036 5.66313 3.66454 6.47469H3.95653L3.41696 6.86668C3.3329 7.00691 3.25227 7.14937 3.17501 7.29395L3.43266 8.08695L2.95196 7.7377C2.83247 7.99086 2.72317 8.24973 2.62493 8.51398L2.9088 9.38773H3.95653L3.10887 10.0036L3.43266 11L2.58505 10.3842L2.07731 10.7531C2.02649 11.1616 2.00001 11.5777 2.00001 12H12C12 6.47719 12 5.82609 12 2C10.0245 2 8.18302 2.57305 6.63219 3.56164ZM7.01962 11L6.172 10.3842L5.32438 11L5.64817 10.0036L4.80052 9.38773H5.84825L6.172 8.39129L6.49575 9.38773H7.54348L6.69583 10.0036L7.01962 11ZM6.69583 7.09051L7.01962 8.08695L6.172 7.47113L5.32438 8.08695L5.64817 7.09051L4.80052 6.47469H5.84825L6.172 5.47824L6.49575 6.47469H7.54348L6.69583 7.09051ZM10.6066 11L9.75895 10.3842L8.91134 11L9.23512 10.0036L8.38747 9.38773H9.4352L9.75895 8.39129L10.0827 9.38773H11.1304L10.2828 10.0036L10.6066 11ZM10.2828 7.09051L10.6066 8.08695L9.75895 7.47113L8.91134 8.08695L9.23512 7.09051L8.38747 6.47469H9.4352L9.75895 5.47824L10.0827 6.47469H11.1304L10.2828 7.09051ZM10.2828 4.17746L10.6066 5.17391L9.75895 4.55809L8.91134 5.17391L9.23512 4.17746L8.38747 3.56164H9.4352L9.75895 2.5652L10.0827 3.56164H11.1304L10.2828 4.17746Z" fill="#0052B4"/>
</svg>
