<svg width="24" height="24" viewBox="0 0 24 24" fill="none" xmlns="http://www.w3.org/2000/svg">
<path d="M12 24C18.6274 24 24 18.6274 24 12C24 5.37258 18.6274 0 12 0C5.37258 0 0 5.37258 0 12C0 18.6274 5.37258 24 12 24Z" fill="#F1F1F2"/>
<path d="M12 22C17.5228 22 22 17.5228 22 12C22 6.47715 17.5228 2 12 2C6.47715 2 2 6.47715 2 12C2 17.5228 6.47715 22 12 22Z" fill="white"/>
<path d="M16.6667 8.25H7.33333C7.24493 8.25 7.16014 8.28592 7.09763 8.34985C7.03512 8.41378 7 8.50049 7 8.59091V15.4091C7 15.4995 7.03512 15.5862 7.09763 15.6502C7.16014 15.7141 7.24493 15.75 7.33333 15.75H16.6667C16.7551 15.75 16.8399 15.7141 16.9024 15.6502C16.9649 15.5862 17 15.4995 17 15.4091V8.59091C17 8.50049 16.9649 8.41378 16.9024 8.34985C16.8399 8.28592 16.7551 8.25 16.6667 8.25ZM16.3333 8.93182V13.6636L15.27 12.1432C15.242 12.1028 15.2057 12.0692 15.1637 12.0447C15.1217 12.0201 15.0749 12.0052 15.0267 12.001C14.9785 11.9968 14.93 12.0034 14.8845 12.0203C14.839 12.0372 14.7977 12.064 14.7633 12.0989L13.5 13.3943L10.7367 10.5682C10.6742 10.5047 10.5897 10.469 10.5017 10.469C10.4136 10.469 10.3291 10.5047 10.2667 10.5682L7.66667 13.2239V8.93182H16.3333ZM7.66667 15.0682V14.1852L10.5 11.2875L13.2633 14.1136C13.3258 14.1771 13.4103 14.2128 13.4983 14.2128C13.5864 14.2128 13.6709 14.1771 13.7333 14.1136L14.9567 12.8659L16.3333 14.8364V15.0682H7.66667ZM13 10.6364C13 10.5015 13.0391 10.3697 13.1124 10.2576C13.1856 10.1454 13.2897 10.0581 13.4115 10.0064C13.5334 9.95484 13.6674 9.94134 13.7967 9.96765C13.926 9.99395 14.0448 10.0589 14.1381 10.1542C14.2313 10.2496 14.2948 10.3711 14.3205 10.5033C14.3462 10.6356 14.333 10.7727 14.2826 10.8973C14.2321 11.0219 14.1467 11.1284 14.037 11.2033C13.9274 11.2782 13.7985 11.3182 13.6667 11.3182C13.4899 11.3182 13.3203 11.2463 13.1953 11.1185C13.0702 10.9906 13 10.8172 13 10.6364Z" fill="black"/>
</svg>
